ffmpeg started on 2026-03-30 at 17:10:03
Report written to "D:\Convert\FFMetrics\reports\ssim_report-6.txt"
Log level: 32
Command line:
ffmpeg -hide_banner -nostdin -r 24000/1001 -i "F:\\\xc0\xed\xe8\xec\xe5\\LightFamily\\\xdf \xef\xf0\xe8\xe1\xf0\xe0\xeb \xea \xf0\xf3\xea\xe0\xec \xe4\xe5\xe2\xf3\xf8\xea\xf3 \xe8 \xf2\xe5\xef\xe5\xf0\xfc \xff \xf3\xf7\xf3 \xe5\xb8 \xe2\xf1\xff\xea\xe8\xec \xef\xeb\xee\xf5\xe8\xec \xe2\xe5\xf9\xe0\xec\\LightFamilyDUB_\xdf_\xef\xf0\xe8\xe1\xf0\xe0\xeb_\xea_\xf0\xf3\xea\xe0\xec_\xe4\xe5\xe2\xf3\xf8\xea\xf3_\xe8_\xf2\xe5\xef\xe5\xf0\xfc_\xf3\xf7\xf3_\xe5\xb8_\xe2\xf1\xff\xea\xe8\xec_03_HEVC.mkv" -r 24000/1001 -i "F:\\\xc0\xed\xe8\xec\xe5\\LightFamily\\\xdf \xef\xf0\xe8\xe1\xf0\xe0\xeb \xea \xf0\xf3\xea\xe0\xec \xe4\xe5\xe2\xf3\xf8\xea\xf3 \xe8 \xf2\xe5\xef\xe5\xf0\xfc \xff \xf3\xf7\xf3 \xe5\xb8 \xe2\xf1\xff\xea\xe8\xec \xef\xeb\xee\xf5\xe8\xec \xe2\xe5\xf9\xe0\xec\\LightFamilyDUB_\xdf_\xef\xf0\xe8\xe1\xf0\xe0\xeb_\xea_\xf0\xf3\xea\xe0\xec_\xe4\xe5\xe2\xf3\xf8\xea\xf3_\xe8_\xf2\xe5\xef\xe5\xf0\xfc_\xf3\xf7\xf3_\xe5\xb8_\xe2\xf1\xff\xea\xe8\xec_03.mp4" -lavfi "[0:v]settb=AVTB,setpts=PTS-STARTPTS,format=pix_fmts=yuv420p10le,fps=24000/1001,scale=1920:1080:flags=lanczos:param0=3:out_range=limited:out_chroma_loc=left,setsar=1/1,setdar=(1920/1080)*(1/1)[main];[1:v]settb=AVTB,setpts=PTS-STARTPTS,format=pix_fmts=yuv420p,fps=24000/1001,scale=1920:1080:flags=lanczos:param0=3:out_range=limited:out_chroma_loc=left,setsar=1/1,setdar=(1920/1080)*(1/1)[ref];[main][ref]ssim=eof_action=endall:stats_file='D\\:/Convert/FFMetrics/logs/ssim_logfile-6.txt'" -f null -
Input #0, matroska,webm, from 'F:\Аниме\LightFamily\Я прибрал к рукам девушку и теперь я учу её всяким плохим вещам\LightFamilyDUB_Я_прибрал_к_рукам_девушку_и_теперь_учу_её_всяким_03_HEVC.mkv':
  Metadata:
    COMPATIBLE_BRANDS: isomiso2avc1mp41
    MAJOR_BRAND     : isom
    MINOR_VERSION   : 512
    ENCODER         : Lavf61.7.100
  Duration: 00:23:40.09, start: -0.021000, bitrate: 1064 kb/s
  Stream #0:0: Video: hevc (Main 10), yuv420p10le(tv, progressive), 1920x1080 [SAR 1:1 DAR 16:9], 23.98 fps, 23.98 tbr, 1k tbn (default)
      Metadata:
        HANDLER_NAME    : VideoHandler
        VENDOR_ID       : [0][0][0][0]
        ENCODER         : Lavc61.19.100 libx265
        BPS             : 864928
        DURATION        : 00:23:40.085708333
        NUMBER_OF_FRAMES: 34048
        NUMBER_OF_BYTES : 153534013
        _STATISTICS_WRITING_APP: mkvpropedit v94.0 ('Initiate') 64-bit
        _STATISTICS_WRITING_DATE_UTC: 2026-03-29 15:23:32
        _STATISTICS_TAGS: BPS DURATION NUMBER_OF_FRAMES NUMBER_OF_BYTES
  Stream #0:1: Audio: aac (LC), 48000 Hz, stereo, fltp (default)
      Metadata:
        HANDLER_NAME    : SoundHandler
        VENDOR_ID       : [0][0][0][0]
        ENCODER         : Lavc61.19.100 aac
        BPS             : 195494
        DURATION        : 00:23:40.010000000
        NUMBER_OF_FRAMES: 66564
        NUMBER_OF_BYTES : 34700571
        _STATISTICS_WRITING_APP: mkvpropedit v94.0 ('Initiate') 64-bit
        _STATISTICS_WRITING_DATE_UTC: 2026-03-29 15:23:32
        _STATISTICS_TAGS: BPS DURATION NUMBER_OF_FRAMES NUMBER_OF_BYTES
Input #1, mov,mp4,m4a,3gp,3g2,mj2, from 'F:\Аниме\LightFamily\Я прибрал к рукам девушку и теперь я учу её всяким плохим вещам\LightFamilyDUB_Я_прибрал_к_рукам_девушку_и_теперь_учу_её_всяким_03.mp4':
  Metadata:
    major_brand     : isom
    minor_version   : 512
    compatible_brands: isomiso2avc1mp41
    encoder         : Lavf58.12.100
  Duration: 00:23:40.04, start: 0.000000, bitrate: 8248 kb/s
  Stream #1:0[0x1](und): Video: h264 (Main) (avc1 / 0x31637661), yuv420p(progressive), 1920x1080 [SAR 1:1 DAR 16:9], 8048 kb/s, 23.98 fps, 23.98 tbr, 24k tbn (default)
      Metadata:
        handler_name    : VideoHandler
        vendor_id       : [0][0][0][0]
  Stream #1:1[0x2](und): Audio: aac (LC) (mp4a / 0x6134706D), 48000 Hz, stereo, fltp, 195 kb/s (default)
      Metadata:
        handler_name    : SoundHandler
        vendor_id       : [0][0][0][0]
Stream mapping:
  Stream #0:0 (hevc) -> settb:default
  Stream #1:0 (h264) -> settb:default
  ssim:default -> Stream #0:0 (wrapped_avframe)
  Stream #0:1 -> #0:1 (aac (native) -> pcm_s16le (native))
Output #0, null, to 'pipe:':
  Metadata:
    COMPATIBLE_BRANDS: isomiso2avc1mp41
    MAJOR_BRAND     : isom
    MINOR_VERSION   : 512
    encoder         : Lavf61.7.100
  Stream #0:0: Video: wrapped_avframe, yuv420p10le(tv, progressive), 1920x1080 [SAR 1:1 DAR 16:9], q=2-31, 200 kb/s, 23.98 fps, 23.98 tbn
      Metadata:
        encoder         : Lavc61.19.100 wrapped_avframe
  Stream #0:1: Audio: pcm_s16le, 48000 Hz, stereo, s16, 1536 kb/s (default)
      Metadata:
        HANDLER_NAME    : SoundHandler
        VENDOR_ID       : [0][0][0][0]
        _STATISTICS_TAGS: BPS DURATION NUMBER_OF_FRAMES NUMBER_OF_BYTES
        BPS             : 195494
        DURATION        : 00:23:40.010000000
        NUMBER_OF_FRAMES: 66564
        NUMBER_OF_BYTES : 34700571
        _STATISTICS_WRITING_APP: mkvpropedit v94.0 ('Initiate') 64-bit
        _STATISTICS_WRITING_DATE_UTC: 2026-03-29 15:23:32
        encoder         : Lavc61.19.100 pcm_s16le
frame=  159 fps=0.0 q=-0.0 size=N/A time=00:00:06.63 bitrate=N/A speed=12.7x    frame=  299 fps=289 q=-0.0 size=N/A time=00:00:12.47 bitrate=N/A speed=  12x    frame=  452 fps=292 q=-0.0 size=N/A time=00:00:18.85 bitrate=N/A speed=12.2x    frame=  628 fps=305 q=-0.0 size=N/A time=00:00:26.19 bitrate=N/A speed=12.7x    frame=  829 fps=320 q=-0.0 size=N/A time=00:00:34.57 bitrate=N/A speed=13.4x    frame= 1050 fps=339 q=-0.0 size=N/A time=00:00:43.79 bitrate=N/A speed=14.1x    frame= 1239 fps=343 q=-0.0 size=N/A time=00:00:51.67 bitrate=N/A speed=14.3x    frame= 1386 fps=336 q=-0.0 size=N/A time=00:00:57.80 bitrate=N/A speed=  14x    frame= 1549 fps=333 q=-0.0 size=N/A time=00:01:04.60 bitrate=N/A speed=13.9x    frame= 1691 fps=328 q=-0.0 size=N/A time=00:01:10.52 bitrate=N/A speed=13.7x    frame= 1843 fps=325 q=-0.0 size=N/A time=00:01:16.86 bitrate=N/A speed=13.6x    frame= 2019 fps=326 q=-0.0 size=N/A time=00:01:24.20 bitrate=N/A speed=13.6x    frame= 2171 fps=324 q=-0.0 size=N/A time=00:01:30.54 bitrate=N/A speed=13.5x    frame= 2332 fps=323 q=-0.0 size=N/A time=00:01:37.26 bitrate=N/A speed=13.5x    frame= 2547 fps=329 q=-0.0 size=N/A time=00:01:46.23 bitrate=N/A speed=13.7x    frame= 2755 fps=334 q=-0.0 size=N/A time=00:01:54.90 bitrate=N/A speed=13.9x    frame= 2959 fps=338 q=-0.0 size=N/A time=00:02:03.41 bitrate=N/A speed=14.1x    frame= 3175 fps=342 q=-0.0 size=N/A time=00:02:12.42 bitrate=N/A speed=14.3x    frame= 3409 fps=348 q=-0.0 size=N/A time=00:02:22.18 bitrate=N/A speed=14.5x    frame= 3625 fps=351 q=-0.0 size=N/A time=00:02:31.19 bitrate=N/A speed=14.7x    frame= 3819 fps=353 q=-0.0 size=N/A time=00:02:39.28 bitrate=N/A speed=14.7x    frame= 4033 fps=356 q=-0.0 size=N/A time=00:02:48.20 bitrate=N/A speed=14.8x    frame= 4260 fps=359 q=-0.0 size=N/A time=00:02:57.67 bitrate=N/A speed=  15x    frame= 4476 fps=361 q=-0.0 size=N/A time=00:03:06.68 bitrate=N/A speed=15.1x    frame= 4698 fps=364 q=-0.0 size=N/A time=00:03:15.94 bitrate=N/A speed=15.2x    frame= 4915 fps=367 q=-0.0 size=N/A time=00:03:24.99 bitrate=N/A speed=15.3x    frame= 5157 fps=370 q=-0.0 size=N/A time=00:03:35.08 bitrate=N/A speed=15.4x    frame= 5374 fps=372 q=-0.0 size=N/A time=00:03:44.14 bitrate=N/A speed=15.5x    frame= 5595 fps=374 q=-0.0 size=N/A time=00:03:53.35 bitrate=N/A speed=15.6x    frame= 5823 fps=376 q=-0.0 size=N/A time=00:04:02.86 bitrate=N/A speed=15.7x    frame= 6049 fps=379 q=-0.0 size=N/A time=00:04:12.29 bitrate=N/A speed=15.8x    frame= 6279 fps=380 q=-0.0 size=N/A time=00:04:21.88 bitrate=N/A speed=15.9x    frame= 6498 fps=382 q=-0.0 size=N/A time=00:04:31.02 bitrate=N/A speed=15.9x    frame= 6699 fps=382 q=-0.0 size=N/A time=00:04:39.40 bitrate=N/A speed=15.9x    frame= 6932 fps=384 q=-0.0 size=N/A time=00:04:49.12 bitrate=N/A speed=  16x    frame= 7149 fps=385 q=-0.0 size=N/A time=00:04:58.17 bitrate=N/A speed=16.1x    frame= 7358 fps=386 q=-0.0 size=N/A time=00:05:06.88 bitrate=N/A speed=16.1x    frame= 7520 fps=384 q=-0.0 size=N/A time=00:05:13.64 bitrate=N/A speed=  16x    frame= 7719 fps=384 q=-0.0 size=N/A time=00:05:21.94 bitrate=N/A speed=  16x    frame= 7940 fps=385 q=-0.0 size=N/A time=00:05:31.16 bitrate=N/A speed=16.1x    frame= 8152 fps=386 q=-0.0 size=N/A time=00:05:40.00 bitrate=N/A speed=16.1x    frame= 8367 fps=386 q=-0.0 size=N/A time=00:05:48.97 bitrate=N/A speed=16.1x    frame= 8576 fps=387 q=-0.0 size=N/A time=00:05:57.69 bitrate=N/A speed=16.1x    frame= 8764 fps=386 q=-0.0 size=N/A time=00:06:05.53 bitrate=N/A speed=16.1x    frame= 8878 fps=383 q=-0.0 size=N/A time=00:06:10.28 bitrate=N/A speed=  16x    frame= 9048 fps=382 q=-0.0 size=N/A time=00:06:17.37 bitrate=N/A speed=15.9x    frame= 9268 fps=382 q=-0.0 size=N/A time=00:06:26.55 bitrate=N/A speed=15.9x    frame= 9494 fps=384 q=-0.0 size=N/A time=00:06:35.97 bitrate=N/A speed=  16x    frame= 9692 fps=384 q=-0.0 size=N/A time=00:06:44.23 bitrate=N/A speed=  16x    frame= 9890 fps=384 q=-0.0 size=N/A time=00:06:52.49 bitrate=N/A speed=  16x    frame=10109 fps=384 q=-0.0 size=N/A time=00:07:01.62 bitrate=N/A speed=  16x    frame=10333 fps=385 q=-0.0 size=N/A time=00:07:10.97 bitrate=N/A speed=16.1x    frame=10553 fps=386 q=-0.0 size=N/A time=00:07:20.14 bitrate=N/A speed=16.1x    frame=10787 fps=387 q=-0.0 size=N/A time=00:07:29.90 bitrate=N/A speed=16.2x    frame=11014 fps=388 q=-0.0 size=N/A time=00:07:39.37 bitrate=N/A speed=16.2x    frame=11235 fps=389 q=-0.0 size=N/A time=00:07:48.59 bitrate=N/A speed=16.2x    frame=11456 fps=390 q=-0.0 size=N/A time=00:07:57.81 bitrate=N/A speed=16.3x    frame=11680 fps=390 q=-0.0 size=N/A time=00:08:07.15 bitrate=N/A speed=16.3x    frame=11879 fps=390 q=-0.0 size=N/A time=00:08:15.45 bitrate=N/A speed=16.3x    frame=12071 fps=390 q=-0.0 size=N/A time=00:08:23.46 bitrate=N/A speed=16.3x    frame=12302 fps=391 q=-0.0 size=N/A time=00:08:33.09 bitrate=N/A speed=16.3x    frame=12509 fps=391 q=-0.0 size=N/A time=00:08:41.72 bitrate=N/A speed=16.3x    frame=12720 fps=392 q=-0.0 size=N/A time=00:08:50.53 bitrate=N/A speed=16.3x    frame=12933 fps=392 q=-0.0 size=N/A time=00:08:59.41 bitrate=N/A speed=16.3x    frame=13152 fps=392 q=-0.0 size=N/A time=00:09:08.54 bitrate=N/A speed=16.4x    frame=13353 fps=392 q=-0.0 size=N/A time=00:09:16.93 bitrate=N/A speed=16.4x    frame=13574 fps=393 q=-0.0 size=N/A time=00:09:26.14 bitrate=N/A speed=16.4x    frame=13799 fps=393 q=-0.0 size=N/A time=00:09:35.53 bitrate=N/A speed=16.4x    frame=13997 fps=393 q=-0.0 size=N/A time=00:09:43.79 bitrate=N/A speed=16.4x    frame=14195 fps=393 q=-0.0 size=N/A time=00:09:52.04 bitrate=N/A speed=16.4x    frame=14415 fps=394 q=-0.0 size=N/A time=00:10:01.22 bitrate=N/A speed=16.4x    frame=14625 fps=394 q=-0.0 size=N/A time=00:10:09.98 bitrate=N/A speed=16.4x    frame=14840 fps=394 q=-0.0 size=N/A time=00:10:18.95 bitrate=N/A speed=16.4x    frame=15067 fps=395 q=-0.0 size=N/A time=00:10:28.41 bitrate=N/A speed=16.5x    frame=15284 fps=395 q=-0.0 size=N/A time=00:10:37.47 bitrate=N/A speed=16.5x    frame=15494 fps=395 q=-0.0 size=N/A time=00:10:46.22 bitrate=N/A speed=16.5x    frame=15708 fps=395 q=-0.0 size=N/A time=00:10:55.15 bitrate=N/A speed=16.5x    frame=15944 fps=396 q=-0.0 size=N/A time=00:11:04.99 bitrate=N/A speed=16.5x    frame=16168 fps=397 q=-0.0 size=N/A time=00:11:14.34 bitrate=N/A speed=16.5x    frame=16396 fps=397 q=-0.0 size=N/A time=00:11:23.84 bitrate=N/A speed=16.6x    frame=16609 fps=398 q=-0.0 size=N/A time=00:11:32.73 bitrate=N/A speed=16.6x    frame=16834 fps=398 q=-0.0 size=N/A time=00:11:42.11 bitrate=N/A speed=16.6x    frame=17056 fps=398 q=-0.0 size=N/A time=00:11:51.37 bitrate=N/A speed=16.6x    frame=17289 fps=399 q=-0.0 size=N/A time=00:12:01.09 bitrate=N/A speed=16.6x    frame=17501 fps=399 q=-0.0 size=N/A time=00:12:09.93 bitrate=N/A speed=16.6x    frame=17724 fps=399 q=-0.0 size=N/A time=00:12:19.23 bitrate=N/A speed=16.7x    frame=17948 fps=400 q=-0.0 size=N/A time=00:12:28.58 bitrate=N/A speed=16.7x    frame=18168 fps=400 q=-0.0 size=N/A time=00:12:37.75 bitrate=N/A speed=16.7x    frame=18384 fps=400 q=-0.0 size=N/A time=00:12:46.76 bitrate=N/A speed=16.7x    frame=18597 fps=401 q=-0.0 size=N/A time=00:12:55.64 bitrate=N/A speed=16.7x    frame=18808 fps=401 q=-0.0 size=N/A time=00:13:04.45 bitrate=N/A speed=16.7x    frame=19028 fps=401 q=-0.0 size=N/A time=00:13:13.62 bitrate=N/A speed=16.7x    frame=19239 fps=401 q=-0.0 size=N/A time=00:13:22.42 bitrate=N/A speed=16.7x    frame=19472 fps=402 q=-0.0 size=N/A time=00:13:32.14 bitrate=N/A speed=16.7x    frame=19682 fps=402 q=-0.0 size=N/A time=00:13:40.90 bitrate=N/A speed=16.8x    frame=19909 fps=402 q=-0.0 size=N/A time=00:13:50.37 bitrate=N/A speed=16.8x    frame=20137 fps=402 q=-0.0 size=N/A time=00:13:59.88 bitrate=N/A speed=16.8x    frame=20364 fps=403 q=-0.0 size=N/A time=00:14:09.34 bitrate=N/A speed=16.8x    frame=20578 fps=403 q=-0.0 size=N/A time=00:14:18.27 bitrate=N/A speed=16.8x    frame=20794 fps=403 q=-0.0 size=N/A time=00:14:27.28 bitrate=N/A speed=16.8x    frame=20993 fps=403 q=-0.0 size=N/A time=00:14:35.58 bitrate=N/A speed=16.8x    frame=21219 fps=403 q=-0.0 size=N/A time=00:14:45.00 bitrate=N/A speed=16.8x    frame=21421 fps=403 q=-0.0 size=N/A time=00:14:53.43 bitrate=N/A speed=16.8x    frame=21626 fps=403 q=-0.0 size=N/A time=00:15:01.98 bitrate=N/A speed=16.8x    frame=21844 fps=403 q=-0.0 size=N/A time=00:15:11.07 bitrate=N/A speed=16.8x    frame=22052 fps=403 q=-0.0 size=N/A time=00:15:19.75 bitrate=N/A speed=16.8x    frame=22259 fps=403 q=-0.0 size=N/A time=00:15:28.38 bitrate=N/A speed=16.8x    frame=22477 fps=404 q=-0.0 size=N/A time=00:15:37.47 bitrate=N/A speed=16.8x    frame=22681 fps=403 q=-0.0 size=N/A time=00:15:45.98 bitrate=N/A speed=16.8x    frame=22884 fps=403 q=-0.0 size=N/A time=00:15:54.45 bitrate=N/A speed=16.8x    frame=23118 fps=404 q=-0.0 size=N/A time=00:16:04.21 bitrate=N/A speed=16.8x    frame=23324 fps=404 q=-0.0 size=N/A time=00:16:12.80 bitrate=N/A speed=16.8x    frame=23535 fps=404 q=-0.0 size=N/A time=00:16:21.60 bitrate=N/A speed=16.8x    frame=23751 fps=404 q=-0.0 size=N/A time=00:16:30.61 bitrate=N/A speed=16.8x    frame=23972 fps=404 q=-0.0 size=N/A time=00:16:39.83 bitrate=N/A speed=16.9x    frame=24197 fps=404 q=-0.0 size=N/A time=00:16:49.21 bitrate=N/A speed=16.9x    frame=24428 fps=405 q=-0.0 size=N/A time=00:16:58.85 bitrate=N/A speed=16.9x    frame=24632 fps=405 q=-0.0 size=N/A time=00:17:07.35 bitrate=N/A speed=16.9x    frame=24856 fps=405 q=-0.0 size=N/A time=00:17:16.70 bitrate=N/A speed=16.9x    frame=25061 fps=405 q=-0.0 size=N/A time=00:17:25.25 bitrate=N/A speed=16.9x    frame=25272 fps=405 q=-0.0 size=N/A time=00:17:34.05 bitrate=N/A speed=16.9x    frame=25493 fps=405 q=-0.0 size=N/A time=00:17:43.27 bitrate=N/A speed=16.9x    frame=25724 fps=405 q=-0.0 size=N/A time=00:17:52.90 bitrate=N/A speed=16.9x    frame=25945 fps=406 q=-0.0 size=N/A time=00:18:02.12 bitrate=N/A speed=16.9x    frame=26160 fps=406 q=-0.0 size=N/A time=00:18:11.09 bitrate=N/A speed=16.9x    frame=26363 fps=406 q=-0.0 size=N/A time=00:18:19.55 bitrate=N/A speed=16.9x    frame=26597 fps=406 q=-0.0 size=N/A time=00:18:29.31 bitrate=N/A speed=16.9x    frame=26823 fps=406 q=-0.0 size=N/A time=00:18:38.74 bitrate=N/A speed=16.9x    frame=27041 fps=406 q=-0.0 size=N/A time=00:18:47.83 bitrate=N/A speed=  17x    frame=27262 fps=407 q=-0.0 size=N/A time=00:18:57.05 bitrate=N/A speed=  17x    frame=27506 fps=407 q=-0.0 size=N/A time=00:19:07.22 bitrate=N/A speed=  17x    frame=27728 fps=407 q=-0.0 size=N/A time=00:19:16.48 bitrate=N/A speed=  17x    frame=27954 fps=408 q=-0.0 size=N/A time=00:19:25.91 bitrate=N/A speed=  17x    frame=28196 fps=408 q=-0.0 size=N/A time=00:19:36.00 bitrate=N/A speed=  17x    frame=28417 fps=408 q=-0.0 size=N/A time=00:19:45.22 bitrate=N/A speed=  17x    frame=28611 fps=408 q=-0.0 size=N/A time=00:19:53.31 bitrate=N/A speed=  17x    frame=28833 fps=408 q=-0.0 size=N/A time=00:20:02.57 bitrate=N/A speed=  17x    frame=29040 fps=408 q=-0.0 size=N/A time=00:20:11.21 bitrate=N/A speed=  17x    frame=29244 fps=408 q=-0.0 size=N/A time=00:20:19.71 bitrate=N/A speed=  17x    frame=29441 fps=408 q=-0.0 size=N/A time=00:20:27.93 bitrate=N/A speed=  17x    frame=29644 fps=408 q=-0.0 size=N/A time=00:20:36.40 bitrate=N/A speed=  17x    frame=29852 fps=408 q=-0.0 size=N/A time=00:20:45.07 bitrate=N/A speed=  17x    frame=30063 fps=408 q=-0.0 size=N/A time=00:20:53.87 bitrate=N/A speed=  17x    frame=30277 fps=408 q=-0.0 size=N/A time=00:21:02.80 bitrate=N/A speed=  17x    frame=30506 fps=408 q=-0.0 size=N/A time=00:21:12.35 bitrate=N/A speed=  17x    frame=30735 fps=408 q=-0.0 size=N/A time=00:21:21.90 bitrate=N/A speed=  17x    frame=30957 fps=408 q=-0.0 size=N/A time=00:21:31.16 bitrate=N/A speed=  17x    frame=31174 fps=408 q=-0.0 size=N/A time=00:21:40.21 bitrate=N/A speed=  17x    frame=31389 fps=408 q=-0.0 size=N/A time=00:21:49.18 bitrate=N/A speed=  17x    frame=31613 fps=409 q=-0.0 size=N/A time=00:21:58.52 bitrate=N/A speed=  17x    frame=31798 fps=408 q=-0.0 size=N/A time=00:22:06.24 bitrate=N/A speed=  17x    frame=31987 fps=408 q=-0.0 size=N/A time=00:22:14.12 bitrate=N/A speed=  17x    frame=32174 fps=408 q=-0.0 size=N/A time=00:22:21.92 bitrate=N/A speed=  17x    frame=32373 fps=407 q=-0.0 size=N/A time=00:22:30.22 bitrate=N/A speed=  17x    frame=32541 fps=407 q=-0.0 size=N/A time=00:22:37.23 bitrate=N/A speed=  17x    frame=32740 fps=407 q=-0.0 size=N/A time=00:22:45.53 bitrate=N/A speed=  17x    frame=32897 fps=406 q=-0.0 size=N/A time=00:22:52.07 bitrate=N/A speed=16.9x    frame=33104 fps=406 q=-0.0 size=N/A time=00:23:00.71 bitrate=N/A speed=16.9x    frame=33304 fps=406 q=-0.0 size=N/A time=00:23:09.09 bitrate=N/A speed=16.9x    frame=33489 fps=406 q=-0.0 size=N/A time=00:23:16.77 bitrate=N/A speed=16.9x    frame=33676 fps=405 q=-0.0 size=N/A time=00:23:24.56 bitrate=N/A speed=16.9x    frame=33899 fps=406 q=-0.0 size=N/A time=00:23:33.87 bitrate=N/A speed=16.9x    [Parsed_ssim_14 @ 00000168cc2743c0] SSIM Y:0.994288 (22.432132) U:0.994947 (22.964569) V:0.995082 (23.082366) All:0.994530 (22.620316)
[out#0/null @ 00000168b5d3be80] video:14630KiB audio:266256KiB subtitle:0KiB other streams:0KiB global headers:0KiB muxing overhead: unknown
frame=34048 fps=405 q=-0.0 Lsize=N/A time=00:23:40.03 bitrate=N/A speed=16.9x    
